<svg width="16" height="16" viewBox="0 0 16 16" fill="none" xmlns="http://www.w3.org/2000/svg">
<path d="M14.7373 3.68667C14.3507 3.08333 13.424 2.46867 11.204 2.96533C11.0347 3.00333 10.8607 3.04867 10.6847 3.098C10.1327 1.27467 9.23133 0 8 0C6.86267 0 5.92467 1.10133 5.31867 3.104C3.57133 2.612 1.95267 2.608 1.26333 3.68667C0.876665 4.29067 0.705332 5.39 2.08667 7.19733C2.29 7.46333 2.522 7.73133 2.77133 8C2.522 8.26867 2.29 8.53667 2.08667 8.80333C0.705332 10.6107 0.876665 11.71 1.26333 12.314C1.64867 12.916 2.35733 13.2193 3.332 13.2193C3.90467 13.2193 4.57133 13.112 5.31667 12.902C5.842 14.6467 6.71133 16 8 16C9.23133 16 10.1327 14.7253 10.6853 12.9013C10.8613 12.9507 11.0347 12.996 11.2047 13.034C12.4633 13.316 14.0453 13.3967 14.7373 12.3127C15.3993 11.2793 14.8487 9.76533 13.2133 8.018C14.6167 6.52067 15.4993 4.87667 14.7373 3.68667ZM13.6147 4.40533C13.9087 4.86467 13.2193 6.312 11.3333 7.988C11.3327 6.75333 11.2213 5.51467 11.0027 4.394C11.622 4.21733 13.2687 3.866 13.6147 4.40533ZM4.67867 8C6.11 6.732 7.962 5.56533 9.72533 4.842C10.0807 6.77133 10.102 9.11067 9.72533 11.158C7.96333 10.4353 6.11133 9.26867 4.67867 8ZM8 1.33333C8.43733 1.33333 8.99733 2.14 9.41333 3.52867C8.95133 3.71133 8.47733 3.92733 8 4.168C7.542 3.938 7.064 3.72267 6.58 3.53267C7.05733 1.938 7.672 1.33333 8 1.33333ZM2.386 4.40533C2.67267 3.956 4.27067 3.96733 6.57 4.96733C5.52267 5.608 4.594 6.288 3.724 7.06733C3.22933 6.53 2 5.00667 2.386 4.40533ZM2.38533 11.5947C2.00067 10.9933 3.228 9.47133 3.724 8.93267C4.044 9.21933 4.38533 9.502 4.74467 9.77867C4.798 10.3833 4.88133 11 4.99933 11.602C3.39933 12.06 2.562 11.8687 2.38533 11.5947ZM8 14.6667C7.45467 14.6667 6.606 13.3053 6.212 10.8127C7.28133 11.4967 8.37533 12.0613 9.41333 12.4713C8.99733 13.86 8.43733 14.6667 8 14.6667ZM13.614 11.5947C13.27 12.136 11.62 11.782 11.0027 11.6067C11.116 11.0247 11.1973 10.41 11.2527 9.782C11.594 9.51867 11.9327 9.23933 12.2593 8.94667C13.5693 10.3547 13.8087 11.2913 13.614 11.5947Z" fill="#7CBC67"/>
<path d="M7.99998 8.66634C8.36817 8.66634 8.66665 8.36786 8.66665 7.99967C8.66665 7.63148 8.36817 7.33301 7.99998 7.33301C7.63179 7.33301 7.33331 7.63148 7.33331 7.99967C7.33331 8.36786 7.63179 8.66634 7.99998 8.66634Z" fill="#7CBC67"/>
</svg>
