<svg width="24" height="24" viewBox="0 0 24 24" fill="none" xmlns="http://www.w3.org/2000/svg">
<g clip-path="url(#clip0)">
<path d="M12 20.9998C10.9395 20.9998 9.9465 20.9623 9.0105 20.8955C9.0105 20.9308 9 20.9638 9 20.9998C9 21.7954 9.31607 22.5585 9.87868 23.1211C10.4413 23.6837 11.2044 23.9998 12 23.9998C12.7956 23.9998 13.5587 23.6837 14.1213 23.1211C14.6839 22.5585 15 21.7954 15 20.9998C15 20.9638 14.991 20.9308 14.9895 20.8955C14.0535 20.9623 13.0605 20.9998 12 20.9998Z" fill="#E3F9E5"/>
<path d="M19.7205 10.5405V7.4535C19.6344 5.45826 18.7853 3.57229 17.3485 2.1852C15.9117 0.798097 13.997 0.0158344 12 0C9.99528 0.032557 8.07889 0.830504 6.64349 2.23035C5.20808 3.6302 4.36232 5.52597 4.2795 7.52925V10.5405C4.2795 13.9283 1.5 14.5313 1.5 16.413C1.5 18.1448 5.592 19.5 12 19.5C18.408 19.5 22.5 18.1448 22.5 16.413C22.5 14.5313 19.7205 13.9283 19.7205 10.5405Z" fill="#E3F9E5"/>
</g>
<defs>
<clipPath id="clip0">
<rect width="24" height="24" fill="white"/>
</clipPath>
</defs>
</svg>
