<svg width="16" height="16" viewBox="0 0 16 16" fill="none" xmlns="http://www.w3.org/2000/svg">
<path d="M12.6667 0.666992H10.6667V4.66699H12.6667C13.0354 4.66699 13.3334 4.36833 13.3334 4.00033V1.33366C13.3334 0.965659 13.0354 0.666992 12.6667 0.666992Z" fill="#7CBC67"/>
<path d="M15.3333 6H13.3333V10H15.3333C15.702 10 16 9.70133 16 9.33333V6.66667C16 6.29867 15.702 6 15.3333 6Z" fill="#7CBC67"/>
<path d="M12.6667 11.334H10.6667V15.334H12.6667C13.0354 15.334 13.3334 15.0353 13.3334 14.6673V12.0007C13.3334 11.6327 13.0354 11.334 12.6667 11.334Z" fill="#7CBC67"/>
<path d="M0.666667 0.666992C0.298 0.666992 0 0.965659 0 1.33366V4.00033C0 4.36833 0.298 4.66699 0.666667 4.66699H9.33333V0.666992H0.666667Z" fill="#7CBC67"/>
<path d="M3.33335 6C2.96469 6 2.66669 6.29867 2.66669 6.66667V9.33333C2.66669 9.70133 2.96469 10 3.33335 10H12V6H3.33335Z" fill="#7CBC67"/>
<path d="M0.666667 11.334C0.298 11.334 0 11.6327 0 12.0007V14.6673C0 15.0353 0.298 15.334 0.666667 15.334H9.33333V11.334H0.666667Z" fill="#7CBC67"/>
</svg>
