<svg width="64" height="58" viewBox="0 0 64 58" fill="none" xmlns="http://www.w3.org/2000/svg">
<path d="M57 2H7C5.67392 2 4.40215 2.52678 3.46447 3.46447C2.52678 4.40215 2 5.67392 2 7V37C2 38.3261 2.52678 39.5979 3.46447 40.5355C4.40215 41.4732 5.67392 42 7 42H22L32 54L42 42H57C58.3261 42 59.5979 41.4732 60.5355 40.5355C61.4732 39.5979 62 38.3261 62 37V7C62 5.67392 61.4732 4.40215 60.5355 3.46447C59.5979 2.52678 58.3261 2 57 2Z" stroke="#7CBC67" stroke-width="4" stroke-miterlimit="10" stroke-linecap="square"/>
</svg>
