<svg width="60" height="59" viewBox="0 0 60 59" fill="none" xmlns="http://www.w3.org/2000/svg">
<path d="M42.693 2.00012C40.1689 1.9901 37.6829 2.61607 35.4645 3.82026C33.2461 5.02444 31.3668 6.76804 30 8.89012C28.6332 6.76804 26.7539 5.02444 24.5355 3.82026C22.3171 2.61607 19.8312 1.9901 17.307 2.00012C15.2855 2.00401 13.2847 2.40751 11.4197 3.1874C9.55462 3.96729 7.86217 5.1082 6.43963 6.54449C5.01708 7.98079 3.89252 9.68415 3.13061 11.5566C2.3687 13.429 1.98447 15.4336 2.00003 17.4551C2.00003 32.8171 30 56.0001 30 56.0001C30 56.0001 58 32.8171 58 17.4551C58.0156 15.4336 57.6314 13.429 56.8694 11.5566C56.1075 9.68415 54.983 7.98079 53.5604 6.54449C52.1379 5.1082 50.4454 3.96729 48.5804 3.1874C46.7154 2.40751 44.7146 2.00401 42.693 2.00012V2.00012Z" stroke="#7CBC67" stroke-width="4" stroke-miterlimit="10" stroke-linecap="square"/>
</svg>
