<svg width="16" height="16" viewBox="0 0 16 16" fill="none" xmlns="http://www.w3.org/2000/svg">
<g clip-path="url(#clip0)">
<path d="M15.5807 9.83258L13.086 8.83258C12.9625 8.78324 12.8566 8.69809 12.7819 8.58808C12.7072 8.47807 12.667 8.34823 12.6667 8.21524V7.62991C13.071 7.39787 13.4071 7.06345 13.6412 6.66029C13.8752 6.25712 13.999 5.79943 14 5.33324V4.11458C14.0113 3.43775 13.772 2.78064 13.3281 2.26956C12.8842 1.75849 12.2671 1.42953 11.5954 1.34591C11.2248 1.30933 10.8508 1.35074 10.4973 1.46747C10.1437 1.5842 9.81855 1.77367 9.54267 2.02367C9.2668 2.27368 9.04632 2.57868 8.89545 2.91905C8.74458 3.25942 8.66665 3.6276 8.66669 3.99991V5.33324C8.66771 5.79943 8.79147 6.25712 9.02553 6.66029C9.25959 7.06345 9.59569 7.39787 10 7.62991V8.21524C9.78053 8.76504 9.41091 9.24207 8.93335 9.59191C8.88802 9.62124 8.84402 9.65391 8.80002 9.68391L9.40735 9.92724C9.77957 10.0745 10.0988 10.3304 10.3234 10.6617C10.5481 10.993 10.6677 11.3843 10.6667 11.7846V13.3332C10.6645 13.5609 10.623 13.7864 10.544 13.9999H15.3334C15.5102 13.9999 15.6797 13.9297 15.8048 13.8046C15.9298 13.6796 16 13.5101 16 13.3332V10.4512C15.9999 10.318 15.9599 10.1879 15.8852 10.0776C15.8105 9.96735 15.7044 9.882 15.5807 9.83258Z" fill="#7CBC67"/>
<path d="M8.914 11.1655L6.41933 10.1655C6.29584 10.1162 6.18992 10.031 6.11519 9.921C6.04047 9.81099 6.00035 9.68114 6 9.54816V9.24749C6.77128 9.17851 7.51431 8.92343 8.16533 8.50416C8.23685 8.45131 8.29693 8.38453 8.34195 8.30784C8.38697 8.23115 8.41599 8.14613 8.42726 8.05793C8.43854 7.96972 8.43183 7.88014 8.40756 7.79459C8.38328 7.70904 8.34193 7.62929 8.286 7.56016C7.75028 6.94114 7.41771 6.17244 7.33333 5.35816C7.35283 4.89105 7.24534 4.4274 7.0223 4.01653C6.79925 3.60565 6.469 3.26293 6.06667 3.02482C5.65815 2.7841 5.19339 2.65532 4.71924 2.65146C4.24509 2.6476 3.7783 2.7688 3.36592 3.00284C2.95353 3.23688 2.61013 3.5755 2.37033 3.98456C2.13053 4.39362 2.00279 4.85866 2 5.33282C1.92291 6.15676 1.58977 6.93587 1.04733 7.56082C0.991421 7.62991 0.950083 7.7096 0.925814 7.79509C0.901544 7.88059 0.894845 7.97012 0.906121 8.05827C0.917398 8.14643 0.946416 8.23138 0.991424 8.30802C1.03643 8.38465 1.0965 8.45137 1.168 8.50416C1.81903 8.92343 2.56205 9.17851 3.33333 9.24749V9.54816C3.33325 9.68137 3.29326 9.81151 3.21851 9.92178C3.14377 10.032 3.03771 10.1174 2.914 10.1668L0.419333 11.1668C0.295836 11.2162 0.189917 11.3013 0.115192 11.4113C0.0404665 11.5213 0.000350324 11.6512 0 11.7842L0 13.3328C0 13.5096 0.0702379 13.6792 0.195262 13.8042C0.320286 13.9293 0.489856 13.9995 0.666667 13.9995H8.66667C8.84348 13.9995 9.01305 13.9293 9.13807 13.8042C9.26309 13.6792 9.33333 13.5096 9.33333 13.3328V11.7842C9.33325 11.6509 9.29326 11.5208 9.21851 11.4105C9.14377 11.3003 9.03771 11.2149 8.914 11.1655Z" fill="#7CBC67"/>
</g>
<defs>
<clipPath id="clip0">
<rect width="16" height="16" fill="white"/>
</clipPath>
</defs>
</svg>
