<svg width="113" height="40" viewBox="0 0 113 40" fill="none" xmlns="http://www.w3.org/2000/svg">
<path d="M48.9524 14.2811C48.7522 14.7192 48.4696 15.0862 48.1046 15.3822C47.7395 15.6782 47.3038 15.9032 46.7974 16.0689C46.2911 16.2228 45.7376 16.3057 45.1253 16.3057C44.2656 16.3057 43.4177 16.1518 42.5934 15.8558C41.7691 15.5598 41.0155 15.0981 40.3325 14.4824L41.8044 12.7183C42.3226 13.1445 42.8525 13.476 43.3942 13.7247C43.9359 13.9733 44.5365 14.1035 45.1841 14.1035C45.7023 14.1035 46.1026 14.0088 46.3853 13.8194C46.6679 13.63 46.8092 13.3695 46.8092 13.038V13.0025C46.8092 12.8367 46.7739 12.6946 46.715 12.5762C46.6561 12.4578 46.5384 12.3394 46.3735 12.2329C46.2086 12.1263 45.9731 12.0198 45.6787 11.9132C45.3843 11.8067 44.9957 11.6883 44.5247 11.5699C43.9477 11.4278 43.4295 11.2739 42.9703 11.0963C42.511 10.9187 42.1106 10.7056 41.7927 10.4569C41.4629 10.2083 41.2157 9.88863 41.039 9.50977C40.8624 9.1309 40.7682 8.65731 40.7682 8.10085V8.06533C40.7682 7.54439 40.8624 7.08264 41.0626 6.65641C41.251 6.24203 41.5218 5.875 41.8751 5.57901C42.2284 5.27118 42.6405 5.04622 43.1233 4.88047C43.6062 4.71471 44.1361 4.63184 44.7249 4.63184C45.5492 4.63184 46.3146 4.76207 47.0094 5.0107C47.7042 5.25934 48.3401 5.61453 48.9171 6.07627L47.6217 7.95877C47.1154 7.61542 46.6208 7.34311 46.138 7.14184C45.6552 6.94056 45.1724 6.84585 44.6895 6.84585C44.2067 6.84585 43.8417 6.94056 43.5944 7.13C43.3471 7.31943 43.2293 7.55623 43.2293 7.84038V7.8759C43.2293 8.06533 43.2647 8.21925 43.3353 8.34948C43.406 8.47972 43.5355 8.60995 43.7121 8.71651C43.9006 8.82307 44.1479 8.92962 44.4658 9.02434C44.7838 9.11906 45.1841 9.23745 45.6669 9.36769C46.244 9.52161 46.7503 9.68736 47.1978 9.87679C47.6453 10.0662 48.0221 10.2912 48.3283 10.5635C48.6345 10.824 48.87 11.1436 49.0231 11.4988C49.1762 11.854 49.2586 12.2802 49.2586 12.7775V12.813C49.2586 13.334 49.1644 13.8431 48.9524 14.2811Z" fill="#337357"/>
<path d="M60.4457 15.1451C60.1278 15.3937 59.7863 15.6068 59.4212 15.7844C59.0561 15.962 58.644 16.1041 58.1965 16.187C57.749 16.2817 57.2544 16.329 56.7127 16.329C55.8884 16.329 55.1112 16.1751 54.4047 15.8791C53.6981 15.5713 53.0858 15.1569 52.5676 14.636C52.0495 14.115 51.6491 13.4875 51.3547 12.7771C51.0603 12.0668 50.919 11.2972 50.919 10.4921V10.4566C50.919 9.63963 51.0603 8.88189 51.3547 8.17152C51.6491 7.46114 52.0495 6.84548 52.5676 6.30085C53.0858 5.76807 53.6981 5.34184 54.4282 5.03401C55.1466 4.72618 55.9473 4.57227 56.8187 4.57227C57.3486 4.57227 57.8315 4.61962 58.2672 4.7025C58.7029 4.78538 59.1033 4.90378 59.4565 5.05769C59.8098 5.21161 60.1395 5.3892 60.4457 5.61415C60.7519 5.82727 61.0227 6.06406 61.2818 6.32453L59.692 8.15968C59.2563 7.75713 58.7971 7.4493 58.3496 7.2125C57.8903 6.98755 57.3722 6.86916 56.807 6.86916C56.3359 6.86916 55.9002 6.96387 55.4881 7.14147C55.0877 7.3309 54.7344 7.57953 54.4518 7.8992C54.1574 8.21887 53.9336 8.59774 53.7688 9.02397C53.6039 9.4502 53.5215 9.91194 53.5215 10.3974V10.4329C53.5215 10.9183 53.6039 11.3801 53.7688 11.8181C53.9336 12.2562 54.1574 12.6351 54.44 12.9547C54.7226 13.2744 55.0641 13.5349 55.4763 13.7243C55.8767 13.9137 56.3241 14.0085 56.807 14.0085C57.4546 14.0085 57.9963 13.8901 58.4438 13.6533C58.8913 13.4165 59.3388 13.085 59.7745 12.6824L61.3524 14.2926C61.0581 14.6123 60.7637 14.8964 60.4457 15.1451Z" fill="#337357"/>
<path d="M70.4081 16.1396V11.5695H65.8273V16.1278H63.3426V4.76172H65.8273V9.26078H70.4081V4.76172H72.8928V16.1278H70.4081V16.1396Z" fill="#337357"/>
<path d="M86.6706 12.7299C86.3645 13.4403 85.9523 14.0559 85.4224 14.6006C84.8925 15.1333 84.2566 15.5596 83.5147 15.8674C82.7728 16.1752 81.972 16.3291 81.1006 16.3291C80.2292 16.3291 79.4284 16.1752 78.6983 15.8674C77.9682 15.5596 77.3323 15.1452 76.8024 14.6124C76.2725 14.0915 75.8603 13.4758 75.5542 12.7654C75.2598 12.055 75.1067 11.2973 75.1067 10.4804V10.4448C75.1067 9.62791 75.2598 8.87018 75.5542 8.1598C75.8603 7.44942 76.2725 6.83376 76.8024 6.28913C77.3323 5.74451 77.9682 5.33012 78.7101 5.02229C79.452 4.71446 80.2528 4.56055 81.1242 4.56055C81.9956 4.56055 82.7964 4.71446 83.5265 5.02229C84.2566 5.33012 84.8925 5.74451 85.4224 6.27729C85.9523 6.79824 86.3645 7.4139 86.6706 8.12428C86.965 8.83466 87.1181 9.59239 87.1181 10.4093V10.4448C87.1181 11.2618 86.9768 12.0195 86.6706 12.7299ZM84.5274 10.4567C84.5274 9.97126 84.445 9.50952 84.2801 9.07145C84.1153 8.63338 83.8797 8.25451 83.5736 7.93484C83.2674 7.61517 82.9023 7.3547 82.4784 7.16527C82.0545 6.97583 81.5952 6.88112 81.1006 6.88112C80.5943 6.88112 80.135 6.97583 79.7228 7.15343C79.3107 7.34286 78.9574 7.59149 78.663 7.91116C78.3686 8.23083 78.1331 8.6097 77.9682 9.03593C77.8034 9.46216 77.7209 9.9239 77.7209 10.4093V10.4448C77.7209 10.9303 77.8034 11.392 77.9682 11.8301C78.1331 12.2682 78.3686 12.647 78.6748 12.9667C78.981 13.2864 79.346 13.5468 79.7582 13.7363C80.1703 13.9257 80.6296 14.0204 81.136 14.0204C81.6305 14.0204 82.0898 13.9257 82.5137 13.7481C82.9377 13.5587 83.2909 13.31 83.5853 12.9904C83.8797 12.6707 84.1153 12.2918 84.2801 11.8656C84.445 11.4394 84.5274 10.9776 84.5274 10.4922V10.4567Z" fill="#337357"/>
<path d="M100.401 12.7299C100.095 13.4403 99.683 14.0559 99.1531 14.6006C98.6232 15.1333 97.9873 15.5596 97.2454 15.8674C96.5035 16.1752 95.7027 16.3291 94.8313 16.3291C93.9599 16.3291 93.1592 16.1752 92.4291 15.8674C91.6989 15.5596 91.063 15.1452 90.5331 14.6124C90.0032 14.0915 89.5911 13.4758 89.2849 12.7654C88.9905 12.055 88.8374 11.2973 88.8374 10.4804V10.4448C88.8374 9.62791 88.9905 8.87018 89.2849 8.1598C89.5911 7.44942 90.0032 6.83376 90.5331 6.28913C91.063 5.74451 91.6989 5.33012 92.4408 5.02229C93.1827 4.71446 93.9835 4.56055 94.8549 4.56055C95.7263 4.56055 96.5271 4.71446 97.2572 5.02229C97.9873 5.33012 98.6232 5.74451 99.1531 6.27729C99.683 6.79824 100.095 7.4139 100.401 8.12428C100.696 8.83466 100.849 9.59239 100.849 10.4093V10.4448C100.849 11.2618 100.696 12.0195 100.401 12.7299ZM98.2463 10.4567C98.2463 9.97126 98.1639 9.50952 97.999 9.07145C97.8342 8.63338 97.5987 8.25451 97.2925 7.93484C96.9863 7.61517 96.6213 7.3547 96.1973 7.16527C95.7734 6.97583 95.3141 6.88112 94.8196 6.88112C94.3132 6.88112 93.8539 6.97583 93.4418 7.15343C93.0296 7.34286 92.6763 7.59149 92.3819 7.91116C92.0875 8.23083 91.852 8.6097 91.6872 9.03593C91.5223 9.46216 91.4399 9.9239 91.4399 10.4093V10.4448C91.4399 10.9303 91.5223 11.392 91.6872 11.8301C91.852 12.2682 92.0875 12.647 92.3937 12.9667C92.6999 13.2864 93.0649 13.5468 93.4771 13.7363C93.8893 13.9257 94.3485 14.0204 94.8549 14.0204C95.3495 14.0204 95.8087 13.9257 96.2327 13.7481C96.6566 13.5587 97.0099 13.31 97.3043 12.9904C97.5987 12.6707 97.8342 12.2918 97.999 11.8656C98.1639 11.4394 98.2463 10.9776 98.2463 10.4922V10.4567Z" fill="#337357"/>
<path d="M103.063 16.1395V4.77344H105.547V13.8781H111.188V16.1395H103.063Z" fill="#337357"/>
<path d="M41.2745 18.958H46.0909V25.4935H52.2732V18.958H57.0896V36.4215H52.2732V29.7913H46.0909V36.4215H41.2745V18.958Z" fill="#74C15A"/>
<path d="M60.1513 18.958H74.1175V23.0782H64.9088V25.7184H73.2461V29.5308H64.9088V32.3131H74.2353V36.4333H60.1513V18.958Z" fill="#74C15A"/>
<path d="M76.6964 18.958H84.9042C87.5538 18.958 89.3908 19.6565 90.5567 20.8523C91.5694 21.8469 92.0993 23.1966 92.0993 24.9133V24.9607C92.0993 27.6246 90.6862 29.4006 88.5312 30.3241L92.6763 36.4096H87.1181L83.6206 31.1173H83.5735H81.5128V36.4096H76.6964V18.958ZM84.6923 27.3405C86.3291 27.3405 87.2712 26.5472 87.2712 25.2685V25.2212C87.2712 23.8478 86.282 23.1492 84.6687 23.1492H81.5128V27.3405H84.6923Z" fill="#74C15A"/>
<path d="M93.9481 27.7426V27.6953C93.9481 22.6871 97.9637 18.6143 103.322 18.6143C108.68 18.6143 112.648 22.6279 112.648 27.6479V27.6953C112.648 32.7034 108.633 36.7763 103.275 36.7763C97.9166 36.7763 93.9481 32.7626 93.9481 27.7426ZM107.738 27.7426V27.6953C107.738 25.1734 105.924 22.9831 103.275 22.9831C100.649 22.9831 98.8822 25.1261 98.8822 27.6479V27.6953C98.8822 30.2171 100.696 32.4074 103.322 32.4074C105.983 32.4074 107.738 30.2645 107.738 27.7426Z" fill="#74C15A"/>
<path d="M34.103 10.4684L30.9471 12.3036C29.899 12.9074 28.6155 12.9074 27.5792 12.3036L17.6874 6.56137L19.7718 5.35373C21.4086 4.40656 23.2457 3.87377 25.1298 3.80273L34.0913 9.01217C34.6683 9.32 34.6683 10.1369 34.103 10.4684Z" fill="#337357"/>
<path d="M17.6874 33.4373L15.5913 34.6568C13.9544 35.6039 12.1174 36.1367 10.2332 36.2078L1.27177 31.0102C0.706529 30.6786 0.706529 29.8735 1.27177 29.542L4.41594 27.6951C5.46399 27.0912 6.74756 27.0912 7.78384 27.6951L17.6874 33.4373Z" fill="#337357"/>
<path d="M25.1416 3.79164C23.2574 3.86268 21.4086 4.39547 19.7835 5.34264L17.6992 6.55028L11.6935 10.0311C9.6798 11.2033 9.42073 14.0093 11.1753 15.5366L13.5423 17.5967L6.09992 13.2752L2.53182 11.2033C1.40134 10.5521 1.40134 8.91821 2.53182 8.26703L16.0035 0.452866C17.0515 -0.150955 18.3351 -0.150955 19.3714 0.452866L21.809 1.86178L23.7991 3.01023L25.1416 3.79164Z" fill="#74C15A"/>
<path d="M32.8312 31.7331L19.3596 39.5472C18.3115 40.151 17.028 40.151 15.9917 39.5472L12.8358 37.7121L11.5757 36.978L10.2333 36.1966C12.1174 36.1256 13.9662 35.5928 15.5913 34.6456L17.6874 33.4261L23.6696 29.9571C25.6833 28.785 25.9423 25.979 24.1877 24.4517L21.8208 22.3916L29.2631 26.7131L32.843 28.785C33.9617 29.448 33.9617 31.0819 32.8312 31.7331Z" fill="#74C15A"/>
<path d="M2.53182 14.5654C1.40133 13.9023 0 14.7193 0 16.0335V19.9997V23.966C0 25.2684 1.40133 26.0853 2.53182 25.4341L9.36184 21.4679C10.4806 20.8167 10.4806 19.1828 9.36184 18.5316L2.53182 14.5654Z" fill="#74C15A"/>
<path d="M32.843 14.5657C33.9617 13.9145 35.3748 14.7314 35.3748 16.0338V20.0001V23.9663C35.3748 25.2687 33.9735 26.0856 32.843 25.4345L26.013 21.4682C24.8943 20.817 24.8943 19.1831 26.013 18.5319L32.843 14.5657Z" fill="#74C15A"/>
</svg>
