<svg width="16" height="16" viewBox="0 0 16 16" fill="none" xmlns="http://www.w3.org/2000/svg">
<g clip-path="url(#clip0)">
<path d="M7 14C3.14 14 0 10.86 0 7C0 3.14 3.14 0 7 0C10.86 0 14 3.14 14 7C14 10.86 10.86 14 7 14ZM7 2C4.243 2 2 4.243 2 7C2 9.757 4.243 12 7 12C9.757 12 12 9.757 12 7C12 4.243 9.757 2 7 2Z" fill="#B1B1B1"/>
<path d="M15.707 14.2934L13.314 11.9004C12.903 12.4294 12.429 12.9034 11.9 13.3144L14.293 15.7074C14.488 15.9024 14.744 16.0004 15 16.0004C15.256 16.0004 15.512 15.9024 15.707 15.7074C16.098 15.3164 16.098 14.6844 15.707 14.2934Z" fill="#B1B1B1"/>
</g>
<defs>
<clipPath id="clip0">
<rect width="16" height="16" fill="white"/>
</clipPath>
</defs>
</svg>
